<svg width="135" height="44" viewBox="0 0 135 44" fill="none" xmlns="http://www.w3.org/2000/svg">
<mask id="mask0" mask-type="alpha" maskUnits="userSpaceOnUse" x="0" y="0" width="135" height="44">
<path fill-rule="evenodd" clip-rule="evenodd" d="M0 0H135V43.0583H0V0Z" fill="white"/>
</mask>
<g mask="url(#mask0)">
<path fill-rule="evenodd" clip-rule="evenodd" d="M130 43.0583H5C2.25 43.0583 0 40.6362 0 37.676V5.3822C0 2.42194 2.25 -9.15527e-05 5 -9.15527e-05H130C132.75 -9.15527e-05 135 2.42194 135 5.3822V37.676C135 40.6362 132.75 43.0583 130 43.0583Z" fill="black"/>
</g>
<path fill-rule="evenodd" clip-rule="evenodd" d="M47.4185 11.0263C47.4185 11.9283 47.1705 12.6463 46.6735 13.1824C46.1085 13.8197 45.3735 14.1383 44.4695 14.1383C43.6035 14.1383 42.8665 13.8154 42.2615 13.1684C41.6545 12.5225 41.3525 11.7206 41.3525 10.7647C41.3525 9.8077 41.6545 9.00682 42.2615 8.35987C42.8665 7.71399 43.6035 7.39105 44.4695 7.39105C44.8985 7.39105 45.3105 7.48147 45.7005 7.66124C46.0915 7.84209 46.4045 8.08214 46.6395 8.38247L46.1115 8.95084C45.7145 8.4406 45.1675 8.1844 44.4695 8.1844C43.8375 8.1844 43.2915 8.42338 42.8305 8.90132C42.3695 9.38035 42.1395 10.0004 42.1395 10.7647C42.1395 11.5279 42.3695 12.149 42.8305 12.6269C43.2915 13.106 43.8375 13.3439 44.4695 13.3439C45.1395 13.3439 45.6975 13.1038 46.1455 12.6226C46.4355 12.3094 46.6035 11.8745 46.6475 11.3147H44.4695V10.5386H47.3765C47.4045 10.7076 47.4185 10.8691 47.4185 11.0263Z" fill="white"/>
<path fill-rule="evenodd" clip-rule="evenodd" d="M47.4185 11.0263C47.4185 11.9283 47.1705 12.6463 46.6735 13.1824C46.1085 13.8197 45.3735 14.1383 44.4695 14.1383C43.6035 14.1383 42.8665 13.8154 42.2615 13.1684C41.6545 12.5225 41.3525 11.7206 41.3525 10.7647C41.3525 9.8077 41.6545 9.00682 42.2615 8.35987C42.8665 7.71399 43.6035 7.39105 44.4695 7.39105C44.8985 7.39105 45.3105 7.48147 45.7005 7.66124C46.0915 7.84209 46.4045 8.08214 46.6395 8.38247L46.1115 8.95084C45.7145 8.4406 45.1675 8.1844 44.4695 8.1844C43.8375 8.1844 43.2915 8.42338 42.8305 8.90132C42.3695 9.38035 42.1395 10.0004 42.1395 10.7647C42.1395 11.5279 42.3695 12.149 42.8305 12.6269C43.2915 13.106 43.8375 13.3439 44.4695 13.3439C45.1395 13.3439 45.6975 13.1038 46.1455 12.6226C46.4355 12.3094 46.6035 11.8745 46.6475 11.3147H44.4695V10.5386H47.3765C47.4045 10.7076 47.4185 10.8691 47.4185 11.0263Z" stroke="white" stroke-width="0.2"/>
<path fill-rule="evenodd" clip-rule="evenodd" d="M52.0274 8.32884H49.2954V10.3763H51.7584V11.1524H49.2954V13.1998H52.0274V13.9942H48.5244V7.53549H52.0274V8.32884Z" fill="white"/>
<path fill-rule="evenodd" clip-rule="evenodd" d="M52.0274 8.32884H49.2954V10.3763H51.7584V11.1524H49.2954V13.1998H52.0274V13.9942H48.5244V7.53549H52.0274V8.32884Z" stroke="white" stroke-width="0.2"/>
<path fill-rule="evenodd" clip-rule="evenodd" d="M55.279 13.9938H54.508V8.32845H52.832V7.5351H56.955V8.32845H55.279V13.9938Z" fill="white"/>
<path fill-rule="evenodd" clip-rule="evenodd" d="M55.279 13.9938H54.508V8.32845H52.832V7.5351H56.955V8.32845H55.279V13.9938Z" stroke="white" stroke-width="0.2"/>
<path fill-rule="evenodd" clip-rule="evenodd" d="M59.9375 13.994H60.7085V7.53522H59.9375V13.994Z" fill="white"/>
<path fill-rule="evenodd" clip-rule="evenodd" d="M59.9375 13.994H60.7085V7.53522H59.9375V13.994Z" stroke="white" stroke-width="0.2"/>
<path fill-rule="evenodd" clip-rule="evenodd" d="M64.1286 13.9938H63.3576V8.32845H61.6816V7.5351H65.8046V8.32845H64.1286V13.9938Z" fill="white"/>
<path fill-rule="evenodd" clip-rule="evenodd" d="M64.1286 13.9938H63.3576V8.32845H61.6816V7.5351H65.8046V8.32845H64.1286V13.9938Z" stroke="white" stroke-width="0.2"/>
<path fill-rule="evenodd" clip-rule="evenodd" d="M69.7793 12.6183C70.2233 13.1027 70.7663 13.3438 71.4093 13.3438C72.0513 13.3438 72.5953 13.1027 73.0393 12.6183C73.4833 12.1339 73.7063 11.516 73.7063 10.7646C73.7063 10.0133 73.4833 9.39432 73.0393 8.91099C72.5953 8.42658 72.0513 8.18438 71.4093 8.18438C70.7663 8.18438 70.2233 8.42658 69.7793 8.91099C69.3363 9.39432 69.1133 10.0133 69.1133 10.7646C69.1133 11.516 69.3363 12.1339 69.7793 12.6183ZM73.6092 13.1588C73.0192 13.8123 72.2862 14.1384 71.4092 14.1384C70.5322 14.1384 69.7992 13.8123 69.2102 13.1588C68.6202 12.5065 68.3262 11.7089 68.3262 10.7648C68.3262 9.82074 68.6202 9.02201 69.2102 8.36968C69.7992 7.71734 70.5322 7.39117 71.4092 7.39117C72.2812 7.39117 73.0122 7.71842 73.6052 8.37398C74.1972 9.02954 74.4932 9.82612 74.4932 10.7648C74.4932 11.7089 74.1982 12.5065 73.6092 13.1588Z" fill="white"/>
<path d="M69.706 8.8434L69.6322 8.77583L69.6314 8.77672L69.706 8.8434ZM73.1133 8.84332L73.1133 8.94332L73.3406 8.94332L73.187 8.77575L73.1133 8.84332ZM69.8534 8.97854L69.7797 8.91097L69.7797 8.91097L69.8534 8.97854ZM69.8534 12.5507L69.7796 12.6182L69.7797 12.6183L69.8534 12.5507ZM72.966 12.5507L72.8922 12.4832L72.966 12.5507ZM72.966 8.97862L72.8923 9.0462L72.8924 9.04627L72.966 8.97862ZM72.966 8.97854L72.8922 9.04611L72.8922 9.04612L72.966 8.97854ZM73.1134 8.84336L73.187 8.77571L73.1573 8.74336L73.1134 8.74336L73.1134 8.84336ZM73.1134 12.6859L73.0397 12.6183L73.1134 12.6859ZM69.706 12.6859L69.6322 12.7534L69.6322 12.7534L69.706 12.6859ZM69.7059 12.6858L69.7797 12.6183L69.7797 12.6183L69.7059 12.6858ZM69.706 8.8434L69.7797 8.91098L69.7805 8.91008L69.706 8.8434ZM69.2848 8.43669L69.359 8.50374L69.359 8.5037L69.2848 8.43669ZM69.2847 8.43675L69.3589 8.50383L69.3589 8.5038L69.2847 8.43675ZM69.2847 13.0918L69.2106 13.1588L69.2107 13.159L69.2847 13.0918ZM69.2848 13.0919L69.3591 13.0249L69.3589 13.0247L69.2848 13.0919ZM73.5353 13.0918L73.6096 13.1588L73.6096 13.1588L73.5353 13.0918ZM73.5313 8.441L73.6056 8.37398L73.6055 8.37391L73.5313 8.441ZM69.1364 8.30259L69.2106 8.36967L69.2106 8.36961L69.1364 8.30259ZM73.6797 8.30689L73.7539 8.23982L73.7539 8.23981L73.6797 8.30689ZM73.6798 8.30695L73.754 8.23993L73.754 8.23989L73.6798 8.30695ZM73.6838 13.2259L73.6168 13.3001L73.691 13.3671L73.758 13.2929L73.6838 13.2259ZM73.6096 13.1588L73.6766 13.0846L73.5425 13.2331L73.6096 13.1588ZM73.6838 13.2259L73.758 13.2929L73.825 13.2187L73.7508 13.1516L73.6838 13.2259ZM69.1363 13.2258L69.2106 13.1589L69.2105 13.1588L69.1363 13.2258ZM71.4097 7.98436C70.7092 7.98436 70.1131 8.25117 69.6322 8.77583L69.7797 8.91097C70.2237 8.42656 70.7667 8.18436 71.4097 8.18436V7.98436ZM73.187 8.77575C72.7061 8.2511 72.1091 7.98436 71.4097 7.98436V8.18436C72.0516 8.18436 72.5956 8.42654 73.0396 8.91089L73.187 8.77575ZM73.1133 8.74332L69.706 8.7434L69.706 8.9434L73.1133 8.94332L73.1133 8.74332ZM69.9271 9.04611C70.3342 8.60197 70.8242 8.38436 71.4097 8.38436V8.18436C70.7667 8.18436 70.2237 8.42656 69.7797 8.91097L69.9271 9.04611ZM69.3137 10.7646C69.3137 10.0557 69.5227 9.4873 69.9271 9.04611L69.7797 8.91097C69.3367 9.3943 69.1137 10.0133 69.1137 10.7646H69.3137ZM69.9272 12.4832C69.5226 12.0408 69.3137 11.4734 69.3137 10.7646H69.1137C69.1137 11.516 69.3366 12.1338 69.7796 12.6182L69.9272 12.4832ZM71.4097 13.1438C70.8239 13.1438 70.334 12.9271 69.9271 12.4832L69.7797 12.6183C70.2237 13.1027 70.7667 13.3438 71.4097 13.3438V13.1438ZM72.8922 12.4832C72.4853 12.9271 71.9945 13.1438 71.4097 13.1438V13.3438C72.0517 13.3438 72.5957 13.1027 73.0397 12.6183L72.8922 12.4832ZM73.5067 10.7646C73.5067 11.4734 73.2977 12.0408 72.8922 12.4832L73.0397 12.6183C73.4837 12.1339 73.7067 11.516 73.7067 10.7646H73.5067ZM72.8924 9.04627C73.2976 9.48741 73.5067 10.0557 73.5067 10.7646H73.7067C73.7067 10.0133 73.4837 9.3943 73.0397 8.91097L72.8924 9.04627ZM72.8922 9.04612L72.8923 9.0462L73.0397 8.91105L73.0397 8.91096L72.8922 9.04612ZM71.4097 8.38436C71.9942 8.38436 72.4852 8.60201 72.8922 9.04611L73.0397 8.91097C72.5957 8.42656 72.0517 8.18436 71.4097 8.18436V8.38436ZM73.9067 10.7646C73.9067 9.97087 73.6697 9.30124 73.187 8.77571L73.0397 8.91101C73.4837 9.39433 73.7067 10.0133 73.7067 10.7646H73.9067ZM73.1871 12.7534C73.6697 12.227 73.9067 11.5586 73.9067 10.7646H73.7067C73.7067 11.516 73.4837 12.1339 73.0397 12.6183L73.1871 12.7534ZM71.4097 13.5438C72.1089 13.5438 72.706 13.2783 73.1871 12.7534L73.0397 12.6183C72.5957 13.1027 72.0517 13.3438 71.4097 13.3438V13.5438ZM69.6322 12.7534C70.1133 13.2783 70.7094 13.5438 71.4097 13.5438V13.3438C70.7667 13.3438 70.2237 13.1027 69.7797 12.6183L69.6322 12.7534ZM69.6321 12.7533L69.6322 12.7534L69.7797 12.6184L69.7797 12.6183L69.6321 12.7533ZM68.9137 10.7646C68.9137 11.5585 69.1507 12.2269 69.6321 12.7533L69.7797 12.6183C69.3367 12.1339 69.1137 11.516 69.1137 10.7646H68.9137ZM69.6322 8.77584C69.1506 9.30132 68.9137 9.97087 68.9137 10.7646H69.1137C69.1137 10.0133 69.3367 9.3943 69.7797 8.91097L69.6322 8.77584ZM69.6314 8.77672L69.6314 8.77673L69.7805 8.91008L69.7805 8.91008L69.6314 8.77672ZM69.706 8.9434L73.1134 8.94336L73.1134 8.74336L69.706 8.7434L69.706 8.9434ZM69.359 8.5037C69.9102 7.89326 70.5893 7.59117 71.4096 7.59117V7.39117C70.5326 7.39117 69.7996 7.71734 69.2106 8.36967L69.359 8.5037ZM69.3589 8.5038L69.359 8.50374L69.2106 8.36963L69.2105 8.3697L69.3589 8.5038ZM68.5266 10.7648C68.5266 9.86616 68.8048 9.11642 69.3589 8.50383L69.2106 8.36967C68.6206 9.022 68.3266 9.82073 68.3266 10.7648H68.5266ZM69.3589 13.0247C68.8048 12.412 68.5266 11.6634 68.5266 10.7648H68.3266C68.3266 11.7088 68.6206 12.5065 69.2106 13.1588L69.3589 13.0247ZM69.3589 13.0247L69.3588 13.0246L69.2107 13.159L69.2108 13.1591L69.3589 13.0247ZM71.4096 13.9384C70.5893 13.9384 69.9103 13.6363 69.3591 13.0249L69.2106 13.1588C69.7996 13.8122 70.5326 14.1384 71.4096 14.1384V13.9384ZM73.4611 13.0248C72.9089 13.6364 72.2298 13.9384 71.4096 13.9384V14.1384C72.2866 14.1384 73.0196 13.8122 73.6096 13.1588L73.4611 13.0248ZM74.2936 10.7648C74.2936 11.6632 74.0144 12.412 73.4611 13.0248L73.6096 13.1588C74.1986 12.5065 74.4936 11.7088 74.4936 10.7648H74.2936ZM73.4571 8.50802C74.0138 9.12441 74.2936 9.87229 74.2936 10.7648H74.4936C74.4936 9.82612 74.1976 9.02954 73.6056 8.37398L73.4571 8.50802ZM71.4096 7.59117C72.2241 7.59117 72.9015 7.8938 73.4572 8.50808L73.6055 8.37391C73.0125 7.71839 72.2815 7.39117 71.4096 7.39117V7.59117ZM71.4096 7.19117C70.4759 7.19117 69.689 7.54139 69.0622 8.23557L69.2106 8.36961C69.7996 7.71732 70.5326 7.39117 71.4096 7.39117V7.19117ZM73.7539 8.23981C73.1236 7.543 72.339 7.19117 71.4096 7.19117V7.39117C72.2816 7.39117 73.0126 7.71841 73.6056 8.37398L73.7539 8.23981ZM73.754 8.23989L73.7539 8.23982L73.6055 8.37396L73.6056 8.37402L73.754 8.23989ZM74.6936 10.7648C74.6936 9.77996 74.3814 8.93467 73.754 8.23993L73.6056 8.37398C74.1976 9.02954 74.4936 9.82612 74.4936 10.7648H74.6936ZM73.758 13.2929C74.3827 12.601 74.6936 11.7545 74.6936 10.7648H74.4936C74.4936 11.7088 74.1986 12.5065 73.6096 13.1588L73.758 13.2929ZM73.5425 13.2331L73.6168 13.3001L73.7508 13.1516L73.6766 13.0846L73.5425 13.2331ZM73.7508 13.1516L73.6766 13.0846L73.5425 13.2331L73.6168 13.3001L73.7508 13.1516ZM71.4096 14.3384C72.3433 14.3384 73.1302 13.9881 73.758 13.2929L73.6096 13.1588C73.0196 13.8122 72.2866 14.1384 71.4096 14.1384V14.3384ZM69.0621 13.2928C69.6889 13.9882 70.4758 14.3384 71.4096 14.3384V14.1384C70.5326 14.1384 69.7996 13.8123 69.2106 13.1589L69.0621 13.2928ZM68.1266 10.7648C68.1266 11.7543 68.4363 12.6009 69.0622 13.2929L69.2105 13.1588C68.6205 12.5065 68.3266 11.7088 68.3266 10.7648H68.1266ZM69.0622 8.23551C68.4363 8.92759 68.1266 9.77532 68.1266 10.7648H68.3266C68.3266 9.82073 68.6206 9.022 69.2106 8.36967L69.0622 8.23551Z" fill="white"/>
<path fill-rule="evenodd" clip-rule="evenodd" d="M75.5752 13.9938V7.5351H76.5132L79.4292 12.5589H79.4632L79.4292 11.3145V7.5351H80.2012V13.9938H79.3962L76.3462 8.72566H76.3122L76.3462 9.97112V13.9938H75.5752Z" fill="white"/>
<path fill-rule="evenodd" clip-rule="evenodd" d="M75.5752 13.9938V7.5351H76.5132L79.4292 12.5589H79.4632L79.4292 11.3145V7.5351H80.2012V13.9938H79.3962L76.3462 8.72566H76.3122L76.3462 9.97112V13.9938H75.5752Z" stroke="white" stroke-width="0.2"/>
<path fill-rule="evenodd" clip-rule="evenodd" d="M106.936 32.2939H108.801V18.8371H106.936V32.2939ZM123.744 23.684L121.605 29.5184H121.541L119.321 23.684H117.311L120.641 31.8382L118.742 36.3744H120.688L125.819 23.684H123.744ZM113.16 30.7654C112.55 30.7654 111.697 30.436 111.697 29.6222C111.697 28.5845 112.759 28.1851 113.676 28.1851C114.495 28.1851 114.882 28.3767 115.38 28.6351C115.235 29.8827 114.238 30.7654 113.16 30.7654ZM113.386 23.3895C112.035 23.3895 110.636 24.0311 110.057 25.4498L111.713 26.1948C112.067 25.4498 112.726 25.2076 113.418 25.2076C114.383 25.2076 115.364 25.8309 115.38 26.9386V27.0775C115.042 26.8697 114.318 26.5586 113.434 26.5586C111.648 26.5586 109.831 27.6146 109.831 29.5878C109.831 31.3887 111.295 32.5491 112.935 32.5491C114.189 32.5491 114.882 31.943 115.315 31.2326H115.38V32.2714H117.182V27.1119C117.182 24.7232 115.524 23.3895 113.386 23.3895ZM101.854 25.3224H99.2002V20.7098H101.854C103.249 20.7098 104.041 21.952 104.041 23.0156C104.041 24.0586 103.249 25.3224 101.854 25.3224ZM101.806 18.8361H97.335V32.294H99.2V27.1959H101.806C103.874 27.1959 105.907 25.5833 105.907 23.016C105.907 20.4486 103.874 18.8361 101.806 18.8361ZM77.4246 30.7672C76.1356 30.7672 75.0566 29.6057 75.0566 28.0104C75.0566 26.3968 76.1356 25.2181 77.4246 25.2181C78.6966 25.2181 79.6956 26.3968 79.6956 28.0104C79.6956 29.6057 78.6966 30.7672 77.4246 30.7672ZM79.5675 24.4378H79.5035C79.0845 23.9007 78.2785 23.4141 77.2645 23.4141C75.1375 23.4141 73.1875 25.426 73.1875 28.0106C73.1875 30.5769 75.1375 32.5716 77.2645 32.5716C78.2785 32.5716 79.0845 32.0861 79.5035 31.5306H79.5675V32.1894C79.5675 33.9419 78.6975 34.8773 77.2965 34.8773C76.1525 34.8773 75.4435 33.9936 75.1535 33.2476L73.5265 33.9763C73.9935 35.1895 75.2335 36.6815 77.2965 36.6815C79.4875 36.6815 81.3405 35.2939 81.3405 31.9117V23.6919H79.5675V24.4378ZM82.6289 32.2939H84.4969V18.8371H82.6289V32.2939ZM87.2522 27.8544C87.2042 26.0847 88.5252 25.1837 89.4753 25.1837C90.2172 25.1837 90.8452 25.583 91.0552 26.1546L87.2522 27.8544ZM93.0514 26.3281C92.6964 25.3055 91.6174 23.4141 89.4104 23.4141C87.2194 23.4141 85.3984 25.2699 85.3984 27.9934C85.3984 30.5597 87.2034 32.5716 89.6194 32.5716C91.5684 32.5716 92.6964 31.2884 93.1644 30.5424L91.7144 29.5015C91.2304 30.2647 90.5704 30.7674 89.6194 30.7674C88.6694 30.7674 87.9924 30.2992 87.5584 29.3799L93.2444 26.848L93.0514 26.3281ZM47.744 24.8197V26.7616H52.061C51.933 27.8542 51.594 28.6519 51.079 29.2063C50.45 29.8834 49.467 30.6294 47.744 30.6294C45.085 30.6294 43.007 28.3225 43.007 25.4613C43.007 22.6 45.085 20.2921 47.744 20.2921C49.178 20.2921 50.225 20.8992 50.998 21.6808L52.271 20.3104C51.191 19.2006 49.758 18.3502 47.744 18.3502C44.102 18.3502 41.041 21.5419 41.041 25.4613C41.041 29.3796 44.102 32.5713 47.744 32.5713C49.709 32.5713 51.191 31.877 52.351 30.5766C53.543 29.2935 53.914 27.4893 53.914 26.0329C53.914 25.5829 53.882 25.1663 53.817 24.8197H47.744ZM58.8219 30.7672C57.5339 30.7672 56.4219 29.6229 56.4219 27.9932C56.4219 26.3451 57.5339 25.2181 58.8219 25.2181C60.1109 25.2181 61.2229 26.3451 61.2229 27.9932C61.2229 29.6229 60.1109 30.7672 58.8219 30.7672ZM58.8217 23.4141C56.4697 23.4141 54.5527 25.3399 54.5527 27.9934C54.5527 30.6296 56.4697 32.5716 58.8217 32.5716C61.1747 32.5716 63.0917 30.6296 63.0917 27.9934C63.0917 25.3399 61.1747 23.4141 58.8217 23.4141ZM68.1364 30.7672C66.8474 30.7672 65.7354 29.6229 65.7354 27.9932C65.7354 26.3451 66.8474 25.2181 68.1364 25.2181C69.4254 25.2181 70.5364 26.3451 70.5364 27.9932C70.5364 29.6229 69.4254 30.7672 68.1364 30.7672ZM68.1362 23.4141C65.7842 23.4141 63.8672 25.3399 63.8672 27.9934C63.8672 30.6296 65.7842 32.5716 68.1362 32.5716C70.4882 32.5716 72.4052 30.6296 72.4052 27.9934C72.4052 25.3399 70.4882 23.4141 68.1362 23.4141Z" fill="white"/>
<mask id="mask1" mask-type="alpha" maskUnits="userSpaceOnUse" x="9" y="8" width="14" height="28">
<path fill-rule="evenodd" clip-rule="evenodd" d="M10.4357 8.11429C10.1447 8.44584 9.97266 8.96038 9.97266 9.62671V33.4337C9.97266 34.1011 10.1447 34.6146 10.4357 34.945L10.5087 35.0236L22.8987 21.6874V21.5302V21.373L10.5087 8.03571L10.4357 8.11429Z" fill="white"/>
</mask>
<g mask="url(#mask1)">
<path fill-rule="evenodd" clip-rule="evenodd" d="M10.4357 8.11429C10.1447 8.44584 9.97266 8.96038 9.97266 9.62671V33.4337C9.97266 34.1011 10.1447 34.6146 10.4357 34.945L10.5087 35.0236L22.8987 21.6874V21.5302V21.373L10.5087 8.03571L10.4357 8.11429Z" fill="#00D2FF"/>
</g>
<mask id="mask2" mask-type="alpha" maskUnits="userSpaceOnUse" x="22" y="16" width="12" height="11">
<path fill-rule="evenodd" clip-rule="evenodd" d="M22.8984 21.3731V21.5303V21.6874L27.0274 26.1343L27.1214 26.0783L32.0144 23.0857C33.4114 22.23 33.4114 20.8306 32.0144 19.9758L27.1214 16.9833L27.0284 16.9262L22.8984 21.3731Z" fill="white"/>
</mask>
<g mask="url(#mask2)">
<path fill-rule="evenodd" clip-rule="evenodd" d="M22.8984 21.3731V21.5303V21.6874L27.0274 26.1343L27.1214 26.0783L32.0144 23.0857C33.4114 22.23 33.4114 20.8306 32.0144 19.9758L27.1214 16.9833L27.0284 16.9262L22.8984 21.3731Z" fill="#FFC802"/>
</g>
<mask id="mask3" mask-type="alpha" maskUnits="userSpaceOnUse" x="10" y="21" width="18" height="15">
<path fill-rule="evenodd" clip-rule="evenodd" d="M10.4355 34.945C10.8955 35.4704 11.6565 35.536 12.5135 35.0118L27.1215 26.0772L22.8985 21.5302L10.4355 34.945Z" fill="white"/>
</mask>
<g mask="url(#mask3)">
<path fill-rule="evenodd" clip-rule="evenodd" d="M10.4355 34.945C10.8955 35.4704 11.6565 35.536 12.5135 35.0118L27.1215 26.0772L22.8985 21.5302L10.4355 34.945Z" fill="url(#paint0_linear)"/>
</g>
<mask id="mask4" mask-type="alpha" maskUnits="userSpaceOnUse" x="10" y="7" width="18" height="15">
<path fill-rule="evenodd" clip-rule="evenodd" d="M10.4355 8.11437L22.8985 21.5303L27.1215 16.9833L12.5135 8.04871C12.1115 7.8022 11.7305 7.68594 11.3925 7.68594C11.0085 7.68594 10.6795 7.83557 10.4355 8.11437Z" fill="white"/>
</mask>
<g mask="url(#mask4)">
<path fill-rule="evenodd" clip-rule="evenodd" d="M10.4355 8.11437L22.8985 21.5303L27.1215 16.9833L12.5135 8.04871C12.1115 7.8022 11.7305 7.68594 11.3925 7.68594C11.0085 7.68594 10.6795 7.83557 10.4355 8.11437Z" fill="#00F076"/>
</g>
<path fill-rule="evenodd" clip-rule="evenodd" d="M27.0285 25.9768L12.5135 34.8554C11.7015 35.3506 10.9755 35.3183 10.5095 34.8662L10.4355 34.9469L10.5085 35.0244L10.5095 35.0234C10.9755 35.4755 11.7015 35.5089 12.5135 35.0126L27.1215 26.0769L27.0285 25.9768Z" fill="black"/>
<path fill-rule="evenodd" clip-rule="evenodd" d="M10.4357 34.7893C10.1447 34.4578 9.97266 33.9432 9.97266 33.2769V33.4341C9.97266 34.1004 10.1447 34.615 10.4357 34.9465L10.5097 34.8668L10.4357 34.7893Z" fill="black"/>
<path fill-rule="evenodd" clip-rule="evenodd" d="M32.0153 22.9272L27.0293 25.9768L27.1223 26.0769L32.0153 23.0844C32.7143 22.657 33.0633 22.094 33.0633 21.531C33.0043 22.0402 32.6493 22.5397 32.0153 22.9272Z" fill="black"/>
<path fill-rule="evenodd" clip-rule="evenodd" d="M12.5137 8.20569L32.0147 20.1329C32.6487 20.5204 33.0037 21.0199 33.0627 21.5301C33.0637 20.9671 32.7137 20.4031 32.0147 19.9757L12.5137 8.04853C11.1157 7.19382 9.97266 7.90429 9.97266 9.62662V9.78378C9.97266 8.06145 11.1157 7.35099 12.5137 8.20569Z" fill="white"/>
<defs>
<linearGradient id="paint0_linear" x1="10.0619" y1="14.5601" x2="-7.6612" y2="42.278" gradientUnits="userSpaceOnUse">
<stop stop-color="#FF3A44"/>
<stop offset="1" stop-color="#C31162"/>
</linearGradient>
</defs>
</svg>
