<svg width="135" height="44" viewBox="0 0 135 44" fill="none" xmlns="http://www.w3.org/2000/svg">
<path d="M8.66869 43.9977C8.31988 43.9977 7.97949 43.9933 7.63341 43.9857C6.91647 43.9765 6.20121 43.9151 5.4935 43.8021C4.83359 43.6903 4.19431 43.4825 3.59676 43.1853C3.00468 42.8907 2.46466 42.5043 1.99738 42.041C1.52334 41.5832 1.12868 41.0522 0.829041 40.469C0.526098 39.8821 0.316443 39.253 0.20738 38.6036C0.089602 37.9058 0.0258789 37.2003 0.0167608 36.493C0.00950236 36.2556 0 35.4652 0 35.4652V9.46205C0 9.46205 0.0101206 8.68376 0.016818 8.45511C0.0255486 7.74897 0.088901 7.0445 0.206327 6.34781C0.315591 5.69665 0.525408 5.06572 0.828514 4.47687C1.12705 3.89414 1.51952 3.36274 1.99071 2.90327C2.46137 2.43943 3.00311 2.05107 3.5962 1.75232C4.19238 1.45615 4.83045 1.24975 5.48902 1.14004C6.19906 1.02586 6.9168 0.964128 7.63622 0.955364L8.66926 0.94162H126.325L127.371 0.955916C128.083 0.964245 128.795 1.02542 129.498 1.13894C130.163 1.25002 130.808 1.45786 131.411 1.75562C132.599 2.35767 133.566 3.31017 134.176 4.47962C134.474 5.0644 134.681 5.69018 134.789 6.33572C134.907 7.03813 134.974 7.74813 134.988 8.46006C134.991 8.77885 134.991 9.12127 134.991 9.46205C135 9.88417 135 10.2859 135 10.691V34.2494C135 34.6583 135 35.0574 134.991 35.4597C134.991 35.8257 134.991 36.1611 134.986 36.5062C134.973 37.2054 134.908 37.9027 134.791 38.5926C134.684 39.2467 134.475 39.8807 134.173 40.4724C133.871 41.0492 133.478 41.5756 133.01 42.0322C132.542 42.498 132.001 42.8867 131.408 43.1832C130.806 43.4826 130.163 43.6913 129.498 43.8021C128.79 43.9157 128.075 43.9771 127.358 43.9857C127.023 43.9933 126.672 43.9977 126.331 43.9977L125.09 44L8.66869 43.9977Z" fill="black"/>
<path d="M27.3569 22.8081C27.3819 20.8985 28.4002 19.1346 30.0548 18.1343C29.0062 16.6619 27.3128 15.7618 25.4855 15.7056C23.563 15.5071 21.6992 16.8366 20.7196 16.8366C19.7209 16.8366 18.2126 15.7252 16.5883 15.7581C14.4512 15.826 12.5072 16.9917 11.4674 18.8287C9.25328 22.5979 10.9049 28.1373 13.0258 31.184C14.087 32.6758 15.3272 34.3423 16.95 34.2832C18.538 34.2185 19.1311 33.2876 21.0479 33.2876C22.947 33.2876 23.5034 34.2832 25.1591 34.2456C26.8631 34.2184 27.9367 32.7471 28.9607 31.2411C29.7231 30.1781 30.3098 29.0032 30.699 27.76C28.6752 26.9184 27.3593 24.9686 27.3569 22.8081Z" fill="white"/>
<path d="M24.2296 13.7019C25.1587 12.6052 25.6164 11.1957 25.5055 9.77264C24.0861 9.91923 22.7749 10.5862 21.8333 11.6408C20.9035 12.6812 20.4324 14.0424 20.5239 15.4245C21.9624 15.4391 23.3282 14.8042 24.2296 13.7019Z" fill="white"/>
<path fill-rule="evenodd" clip-rule="evenodd" d="M42.0117 30.5067H47.4308L48.7311 34.2848H51.0655L45.9327 20.3065H43.5479L38.415 34.2848H40.7104L42.0117 30.5067ZM46.8688 28.7629H42.5732L44.692 22.6312H44.7512L46.8688 28.7629Z" fill="white"/>
<path fill-rule="evenodd" clip-rule="evenodd" d="M57.8249 34.3911C60.4265 34.3911 62.1505 32.3564 62.1505 29.1894C62.1505 26.0312 60.4164 23.9865 57.7857 23.9865C56.4321 23.9436 55.164 24.6359 54.4853 25.7882H54.4462V24.0932H52.3867V37.6559H54.5143V32.6081H54.5636C55.2134 33.7677 56.4801 34.4603 57.8249 34.3911ZM57.2249 25.7696C58.8796 25.7696 59.9641 27.1261 59.9641 29.1894C59.9641 31.2714 58.8796 32.618 57.2249 32.618C55.5993 32.618 54.5059 31.2429 54.5059 29.1894C54.5059 27.1547 55.5993 25.7696 57.2249 25.7696Z" fill="white"/>
<path fill-rule="evenodd" clip-rule="evenodd" d="M69.2331 34.3911C71.8347 34.3911 73.5587 32.3564 73.5587 29.1894C73.5587 26.0312 71.8246 23.9865 69.1939 23.9865C67.8402 23.9436 66.5721 24.6358 65.8935 25.7882H65.8543V24.0932H63.7949V37.6559H65.9225V32.6081H65.9718C66.6216 33.7677 67.8883 34.4603 69.2331 34.3911ZM68.6331 25.7696C70.2878 25.7696 71.3723 27.1261 71.3723 29.1894H71.3723C71.3723 31.2714 70.2878 32.618 68.6331 32.618C67.0075 32.618 65.9141 31.2429 65.9141 29.1894C65.9141 27.1547 67.0075 25.7696 68.6331 25.7696Z" fill="white"/>
<path d="M81.0989 30.3899C81.2565 31.776 82.6261 32.6862 84.4977 32.6862C86.291 32.6862 87.5812 31.776 87.5812 30.5261C87.5812 29.4411 86.803 28.7915 84.9605 28.3463L83.118 27.9099C80.5074 27.2899 79.2955 26.0895 79.2955 24.1416C79.2955 21.7298 81.4332 20.0732 84.4686 20.0732C87.4727 20.0732 89.5322 21.7298 89.6015 24.1416H87.4537C87.3251 22.7466 86.1523 21.9046 84.4384 21.9046C82.7244 21.9046 81.5516 22.7565 81.5516 23.9965C81.5516 24.9847 82.3007 25.5662 84.1332 26.0114L85.6995 26.3895C88.6165 27.0678 89.8284 28.2198 89.8284 30.2645C89.8284 32.8796 87.7097 34.5175 84.34 34.5175C81.1871 34.5175 79.0584 32.9181 78.9209 30.3898L81.0989 30.3899Z" fill="white"/>
<path d="M94.4202 21.6815V24.0933H96.3913V25.7499H94.4202V31.3682C94.4202 32.2411 94.8148 32.6478 95.6813 32.6478C95.9153 32.6438 96.1489 32.6276 96.3812 32.5994V34.2461C95.9916 34.3177 95.5957 34.3501 95.1994 34.3428C93.1009 34.3428 92.2825 33.5678 92.2825 31.5914V25.7499H90.7754V24.0933H92.2825V21.6815H94.4202Z" fill="white"/>
<path fill-rule="evenodd" clip-rule="evenodd" d="M102.449 23.9682C99.454 23.9682 97.5332 25.9832 97.5332 29.1897C97.5332 32.4051 99.4349 34.4113 102.449 34.4113C105.465 34.4113 107.366 32.4051 107.366 29.1897C107.366 25.9831 105.454 23.9682 102.449 23.9682ZM102.449 25.6916C104.173 25.6916 105.199 26.9898 105.199 29.1895H105.198C105.198 31.3979 104.173 32.6863 102.449 32.6863C100.725 32.6863 99.7012 31.3979 99.7012 29.1895C99.7012 26.9997 100.725 25.6916 102.449 25.6916Z" fill="white"/>
<path d="M109.12 24.0933H111.149V25.8279H111.199C111.482 24.7112 112.522 23.9427 113.692 23.9866C113.937 23.9858 114.181 24.012 114.421 24.0647V26.0214C114.111 25.9284 113.788 25.8857 113.465 25.895C112.839 25.87 112.234 26.1151 111.808 26.5659C111.381 27.0167 111.177 27.6281 111.248 28.2397V34.2846H109.12L109.12 24.0933Z" fill="white"/>
<path fill-rule="evenodd" clip-rule="evenodd" d="M119.768 34.4113C122.112 34.4113 123.945 33.1416 124.231 31.2916L122.211 31.2915C121.823 32.2372 120.849 32.8201 119.817 32.725C119.043 32.753 118.294 32.4527 117.76 31.9004C117.227 31.3481 116.96 30.597 117.029 29.8383V29.7119H124.349V28.9952C124.349 25.9051 122.546 23.9682 119.678 23.9682C116.762 23.9682 114.881 26.0415 114.881 29.2381C114.881 32.4249 116.752 34.4113 119.768 34.4113ZM122.221 28.2495L117.039 28.2495C117.037 27.5614 117.315 26.9012 117.811 26.4155C118.306 25.9297 118.979 25.6588 119.679 25.6629C120.373 25.6483 121.042 25.9191 121.525 26.4101C122.007 26.9011 122.26 27.5677 122.221 28.2495Z" fill="white"/>
<path fill-rule="evenodd" clip-rule="evenodd" d="M44.7169 10.7052C44.0943 10.0587 43.2096 9.72082 42.3064 9.78455H39.8389V16.5011H42.3064C44.3412 16.5011 45.5207 15.2677 45.5207 13.1219C45.6346 12.2386 45.3396 11.3517 44.7169 10.7052ZM42.1884 15.5515H40.9004V10.734H42.1884C42.8304 10.6989 43.4548 10.9479 43.8908 11.4126C44.3267 11.8774 44.5286 12.5095 44.4412 13.1359C44.5355 13.7649 44.3364 14.4022 43.8994 14.8708C43.4624 15.3394 42.8339 15.5894 42.1884 15.5515Z" fill="white"/>
<path fill-rule="evenodd" clip-rule="evenodd" d="M47.863 11.6955C47.0742 12.1768 46.6311 13.056 46.7195 13.9645C46.6295 14.874 47.0721 15.755 47.8616 16.2373C48.651 16.7195 49.6504 16.7195 50.4398 16.2373C51.2293 15.755 51.6719 14.874 51.5819 13.9645C51.6703 13.056 51.2272 12.1768 50.4384 11.6955C49.6497 11.2143 48.6517 11.2143 47.863 11.6955ZM49.1524 12.2237C50.0334 12.2237 50.5354 12.8662 50.5354 13.965H50.5354C50.5354 15.0681 50.0334 15.71 49.1524 15.71C48.268 15.71 47.7705 15.0725 47.7705 13.965C47.7705 12.8662 48.268 12.2237 49.1524 12.2237Z" fill="white"/>
<path d="M58.0452 16.5013H56.9898L55.9243 12.7682H55.8438L54.7828 16.5013H53.7374L52.3164 11.4326H53.3484L54.2718 15.3003H54.3479L55.4078 11.4326H56.3838L57.4437 15.3003H57.5242L58.4432 11.4326H59.4606L58.0452 16.5013Z" fill="white"/>
<path d="M60.6553 11.4325H61.6347V12.2378H61.7107C61.9751 11.6449 62.5929 11.2823 63.2491 11.3347C63.7572 11.2971 64.2551 11.4888 64.6023 11.8555C64.9494 12.2223 65.1081 12.7243 65.0335 13.2199V16.5012H64.0161V13.4711C64.0161 12.6566 63.6561 12.2515 62.9036 12.2515C62.559 12.2357 62.2245 12.3687 61.9879 12.6156C61.7513 12.8625 61.6362 13.1987 61.6727 13.536V16.5013H60.6553L60.6553 11.4325Z" fill="white"/>
<path d="M66.6543 9.45389H67.6717V16.5013H66.6543V9.45389Z" fill="white"/>
<path fill-rule="evenodd" clip-rule="evenodd" d="M70.2303 11.6955C69.4415 12.1768 68.9984 13.056 69.0867 13.9646C68.9967 14.8742 69.4395 15.7551 70.229 16.2374C71.0184 16.7196 72.0178 16.7196 72.8073 16.2374C73.5968 15.7551 74.0395 14.8742 73.9496 13.9646C74.0379 13.056 73.5948 12.1768 72.806 11.6955C72.0172 11.2143 71.0191 11.2143 70.2303 11.6955ZM71.5195 12.2237C72.4005 12.2237 72.9025 12.8662 72.9025 13.965H72.9026C72.9026 15.0681 72.4006 15.71 71.5195 15.71C70.6352 15.71 70.1377 15.0725 70.1377 13.965C70.1377 12.8662 70.6352 12.2237 71.5195 12.2237Z" fill="white"/>
<path fill-rule="evenodd" clip-rule="evenodd" d="M76.9379 13.5546C75.7115 13.6293 75.0205 14.1553 75.0205 15.0677C75.0222 15.5003 75.21 15.912 75.5374 16.201C75.8648 16.4901 76.3013 16.6294 76.7389 16.5847C77.3632 16.613 77.9548 16.309 78.2874 15.7888H78.3679V16.5011H79.3473V13.0379C79.3473 11.9672 78.6183 11.3346 77.3259 11.3346C76.1564 11.3346 75.3235 11.893 75.2195 12.7636H76.2045C76.3174 12.4053 76.711 12.2003 77.2789 12.2003C77.9743 12.2003 78.3343 12.5026 78.3343 13.0379V13.4754L76.9379 13.5546ZM78.3338 14.2108V14.6346C78.3116 14.9576 78.1569 15.258 77.9053 15.4668C77.6536 15.6757 77.3266 15.7752 76.9989 15.7426C76.4455 15.7426 76.043 15.4772 76.043 15.021C76.043 14.5741 76.365 14.3367 77.0749 14.29L78.3338 14.2108Z" fill="white"/>
<path fill-rule="evenodd" clip-rule="evenodd" d="M82.8245 11.3483C81.522 11.3483 80.6846 12.3629 80.6846 13.9646C80.6846 15.57 81.513 16.5847 82.8245 16.5846C83.4894 16.6087 84.113 16.2681 84.4434 15.7003H84.5239V16.5011H85.4988V9.4537H84.4814V12.2376H84.4054C84.0982 11.665 83.4822 11.3185 82.8245 11.3483ZM83.1128 15.6869C82.2508 15.6869 81.7354 15.04 81.7354 13.9649H81.7354C81.7354 12.8986 82.2564 12.2473 83.1128 12.2473C83.9647 12.2473 84.5003 12.9129 84.5003 13.9693C84.5003 15.0307 83.9703 15.6869 83.1128 15.6869Z" fill="white"/>
<path fill-rule="evenodd" clip-rule="evenodd" d="M90.8512 11.6955C90.0625 12.1768 89.6194 13.056 89.7078 13.9645C89.6177 14.874 90.0604 15.755 90.8499 16.2373C91.6393 16.7195 92.6387 16.7195 93.4281 16.2373C94.2175 15.755 94.6602 14.874 94.5701 13.9645C94.6585 13.056 94.2155 12.1768 93.4267 11.6955C92.638 11.2143 91.64 11.2143 90.8512 11.6955ZM92.1406 12.2237C93.0216 12.2237 93.5236 12.8662 93.5236 13.965C93.5236 15.0681 93.0216 15.71 92.1406 15.71C91.2563 15.71 90.7588 15.0725 90.7588 13.965C90.7588 12.8662 91.2563 12.2237 92.1406 12.2237Z" fill="white"/>
<path d="M95.9355 11.4325H96.9149V12.2378H96.991C97.2554 11.6449 97.8732 11.2823 98.5294 11.3347C99.0375 11.2971 99.5354 11.4888 99.8825 11.8555C100.23 12.2223 100.388 12.7243 100.314 13.2199V16.5012H99.2963V13.4711C99.2963 12.6566 98.9363 12.2515 98.1839 12.2515C97.8393 12.2357 97.5048 12.3687 97.2682 12.6156C97.0316 12.8625 96.9164 13.1987 96.953 13.536V16.5013H95.9355V11.4325Z" fill="white"/>
<path d="M106.063 10.1706V11.4556H107.179V12.2982H106.063V14.9046C106.063 15.4355 106.285 15.668 106.791 15.668C106.921 15.6676 107.051 15.6599 107.179 15.6449V16.4782C106.997 16.5103 106.812 16.5274 106.626 16.5293C105.495 16.5293 105.044 16.1379 105.044 15.1607V12.2982H104.226V11.4556H105.044V10.1706H106.063Z" fill="white"/>
<path d="M108.569 9.45389H109.578V12.2471H109.658C109.935 11.6491 110.564 11.286 111.23 11.3391C111.735 11.3121 112.227 11.508 112.57 11.8734C112.913 12.2388 113.073 12.7357 113.006 13.2288V16.5013H111.987V13.4756C111.987 12.6659 111.604 12.2559 110.885 12.2559C110.531 12.2274 110.182 12.3539 109.932 12.6016C109.682 12.8494 109.555 13.1931 109.587 13.541V16.5013H108.569L108.569 9.45389Z" fill="white"/>
<path fill-rule="evenodd" clip-rule="evenodd" d="M116.704 16.5991C117.712 16.7065 118.653 16.0887 118.938 15.1326L117.959 15.1326C117.714 15.5631 117.23 15.8059 116.732 15.7471C116.348 15.7513 115.98 15.5961 115.719 15.3196C115.458 15.0432 115.327 14.6711 115.359 14.295V14.239H119V13.8899C119 12.2982 118.134 11.3347 116.7 11.3347C116.011 11.3289 115.353 11.6174 114.897 12.1255C114.441 12.6336 114.231 13.3112 114.323 13.9828C114.229 14.6526 114.439 15.3291 114.898 15.8329C115.356 16.3368 116.017 16.6169 116.704 16.5991ZM117.963 13.4992H115.359C115.355 13.1496 115.494 12.8131 115.745 12.5659C115.997 12.3186 116.339 12.1817 116.694 12.1861C117.045 12.1782 117.383 12.3163 117.625 12.5663C117.866 12.8164 117.989 13.1552 117.963 13.4992Z" fill="white"/>
</svg>
