<svg width="66" height="64" viewBox="0 0 66 64" fill="none" xmlns="http://www.w3.org/2000/svg">
<path opacity="0.5" d="M28.1498 54.2705L23.0133 50.4407C22.496 50.055 22.474 49.2876 22.9684 48.8729L28.2396 44.4513C28.6927 44.0713 28.9543 43.5103 28.9543 42.919V33C28.9543 29.6863 31.6406 27 34.9543 27H58C61.3137 27 64 29.6863 64 33V56C64 59.3137 61.3137 62 58 62H34.9543C31.6406 62 28.9543 59.3137 28.9543 56V55.8739C28.9543 55.2424 28.6561 54.648 28.1498 54.2705Z" stroke="white" stroke-width="3" stroke-linecap="round"/>
<path d="M37.9535 9.72141L43.7891 13.5255C44.3746 13.9071 44.398 14.7563 43.8344 15.1696L37.8629 19.5488C37.3492 19.9256 37.0457 20.5245 37.0457 21.1616V31C37.0457 34.3137 34.3594 37 31.0457 37H8C4.68629 37 2 34.3137 2 31V8C2 4.68629 4.68629 2 8 2H31.0457C34.3594 2 37.0457 4.72522 37.0457 8.03893C37.0457 8.71495 37.3872 9.35224 37.9535 9.72141Z" fill="#0041C4" stroke="white" stroke-width="3" stroke-linecap="round"/>
<path d="M13 16.0002H16.5H25.5M29 16.0002H25.5M25.5 16.0002V18.0002C25.5 22.4185 21.9183 26.0002 17.5 26.0002H13.5" stroke="white" stroke-width="3" stroke-linecap="round"/>
<path d="M29 16.0002H25.5H21M13 16.0002H16.5M16.5 16.0002V18.0002C16.5 22.4185 20.0817 26.0002 24.5 26.0002H28.5M16.5 16.0002H21M21 16.0002V12.5" stroke="white" stroke-width="3" stroke-linecap="round"/>
<path opacity="0.5" d="M44.5298 39.896C46.5298 39.896 48.0658 40.376 49.1378 41.336C50.2098 42.28 50.7458 43.712 50.7458 45.632V53H47.2418V51.392C46.5378 52.592 45.2258 53.192 43.3058 53.192C42.3138 53.192 41.4498 53.024 40.7138 52.688C39.9938 52.352 39.4418 51.888 39.0578 51.296C38.6738 50.704 38.4818 50.032 38.4818 49.28C38.4818 48.08 38.9298 47.136 39.8258 46.448C40.7378 45.76 42.1378 45.416 44.0258 45.416H47.0018C47.0018 44.6 46.7538 43.976 46.2578 43.544C45.7618 43.096 45.0178 42.872 44.0258 42.872C43.3378 42.872 42.6578 42.984 41.9858 43.208C41.3298 43.416 40.7698 43.704 40.3058 44.072L38.9618 41.456C39.6658 40.96 40.5058 40.576 41.4818 40.304C42.4738 40.032 43.4898 39.896 44.5298 39.896ZM44.2418 50.672C44.8818 50.672 45.4498 50.528 45.9458 50.24C46.4418 49.936 46.7938 49.496 47.0018 48.92V47.6H44.4338C42.8978 47.6 42.1298 48.104 42.1298 49.112C42.1298 49.592 42.3138 49.976 42.6818 50.264C43.0658 50.536 43.5858 50.672 44.2418 50.672Z" fill="white"/>
</svg>
