<svg width="49" height="69" viewBox="0 0 49 69" fill="none" xmlns="http://www.w3.org/2000/svg">
<path d="M8.92308 18.1538H7C4.23857 18.1538 2 20.3924 2 23.1538V61.6153C2 64.3768 4.23857 66.6153 7 66.6153H24.6923C27.4537 66.6153 29.6923 64.3768 29.6923 61.6153V28.5384" stroke="white" stroke-width="3" stroke-linecap="round"/>
<path d="M17 8V19.5466V26.4534C17 26.8019 17.4188 26.9794 17.6692 26.737L22.5242 22.039C22.9169 21.6591 23.4418 21.4467 23.9882 21.4467H39C43.4183 21.4467 47 17.865 47 13.4467V4.10526C47 2.94256 46.0574 2 44.8947 2H23C19.6863 2 17 4.68629 17 8Z" fill="#0041C4" stroke="white" stroke-width="3" stroke-linecap="round"/>
<circle cx="25.0958" cy="11.2494" r="2.3263" fill="white"/>
<circle opacity="0.5" cx="32.5392" cy="11.2494" r="2.3263" fill="white"/>
<circle opacity="0.2" cx="39.9835" cy="11.2494" r="2.3263" fill="white"/>
<line opacity="0.4" x1="20.5" y1="58.8076" x2="11.5" y2="58.8076" stroke="white" stroke-width="3" stroke-linecap="round"/>
</svg>
