<svg width="36" height="63" viewBox="0 0 36 63" fill="none" xmlns="http://www.w3.org/2000/svg">
<g opacity="0.2">
<path d="M2 51.7707V43.2727L17.2783 35.3732C17.731 35.1391 18.269 35.1391 18.7217 35.3732L34 43.2727V51.2105C34 51.7818 33.6899 52.3082 33.1901 52.585L18 61L2.84969 53.1666C2.32778 52.8967 2 52.3583 2 51.7707Z" fill="#0041C4"/>
<path d="M2 43.2727V51.7707C2 52.3583 2.32778 52.8967 2.84969 53.1666L18 61M2 43.2727L18 52.1364M2 43.2727L17.2783 35.3732C17.731 35.1391 18.269 35.1391 18.7217 35.3732L34 43.2727M18 61L33.1901 52.585C33.6899 52.3082 34 51.7818 34 51.2105V43.2727M18 61V52.1364M34 43.2727L18 52.1364" stroke="white" stroke-width="3"/>
</g>
<g opacity="0.5">
<path d="M2 34.7707V26.2727L17.2783 18.3732C17.731 18.1391 18.269 18.1391 18.7217 18.3732L34 26.2727V34.2105C34 34.7818 33.6899 35.3082 33.1901 35.585L18 44L2.84969 36.1666C2.32778 35.8967 2 35.3583 2 34.7707Z" fill="#0041C4"/>
<path d="M2 26.2727V34.7707C2 35.3583 2.32778 35.8967 2.84969 36.1666L18 44M2 26.2727L18 35.1364M2 26.2727L17.2783 18.3732C17.731 18.1391 18.269 18.1391 18.7217 18.3732L34 26.2727M18 44L33.1901 35.585C33.6899 35.3082 34 34.7818 34 34.2105V26.2727M18 44V35.1364M34 26.2727L18 35.1364" stroke="white" stroke-width="3"/>
</g>
<path d="M2 18.7707V10.2727L17.2783 2.37317C17.731 2.13911 18.269 2.13911 18.7217 2.37317L34 10.2727V18.2105C34 18.7818 33.6899 19.3082 33.1901 19.585L18 28L2.84969 20.1666C2.32778 19.8967 2 19.3583 2 18.7707Z" fill="#0041C4"/>
<path d="M2 10.2727V18.7707C2 19.3583 2.32778 19.8967 2.84969 20.1666L18 28M2 10.2727L18 19.1364M2 10.2727L17.2783 2.37317C17.731 2.13911 18.269 2.13911 18.7217 2.37317L34 10.2727M18 28L33.1901 19.585C33.6899 19.3082 34 18.7818 34 18.2105V10.2727M18 28V19.1364M34 10.2727L18 19.1364" stroke="white" stroke-width="3"/>
</svg>
