<svg width="560" height="368" viewBox="0 0 560 368" fill="none" xmlns="http://www.w3.org/2000/svg">
<g filter="url(#filter0_d)">
<path d="M460 220.62C460 225.127 456.346 228.781 451.839 228.781H169.374C167.479 228.781 165.643 229.44 164.182 230.646L131.929 257.246C130.598 258.344 128.591 257.397 128.591 255.672V230.821C128.591 229.694 127.677 228.781 126.55 228.781H108.161C103.654 228.781 100 225.127 100 220.62V98.4324C100 93.9252 103.654 90.2714 108.161 90.2714H451.839C456.346 90.2714 460 93.9252 460 98.4324V220.62Z" fill="white"/>
</g>
<path d="M449.533 30.3375C441.775 25.8872 432.225 25.8872 424.467 30.3375L389.581 50.3491C381.797 54.8144 377 63.0805 377 72.0277V111.736C377 120.792 381.914 129.142 389.848 133.565L418.643 149.62C420.085 150.424 420.652 152.206 419.939 153.691L414.448 165.113C413.724 166.619 415.347 168.174 416.829 167.396L449.283 150.356L483.189 133.336C491.658 129.084 497 120.443 497 110.996V72.0277C497 63.0805 492.203 54.8144 484.419 50.3491L449.533 30.3375Z" fill="#0041C4"/>
<path d="M416.094 71.1562C411.876 71.1562 408.456 74.7346 408.456 79.1486V88.5864H456.74C460.959 88.5864 464.378 85.008 464.378 80.5941V71.1562H416.094Z" fill="white"/>
<path d="M428.262 122.636C428.262 123.726 429.173 124.609 430.296 124.609H437.987C442.268 124.609 445.738 121.243 445.738 117.091V88.5864V88.5864C436.086 88.5864 428.262 96.1749 428.262 105.536V122.636Z" fill="white"/>
<defs>
<filter id="filter0_d" x="0" y="0.271362" width="560" height="367.445" filterUnits="userSpaceOnUse" color-interpolation-filters="sRGB">
<feFlood flood-opacity="0" result="BackgroundImageFix"/>
<feColorMatrix in="SourceAlpha" type="matrix" values="0 0 0 0 0 0 0 0 0 0 0 0 0 0 0 0 0 0 127 0"/>
<feOffset dy="10"/>
<feGaussianBlur stdDeviation="50"/>
<feColorMatrix type="matrix" values="0 0 0 0 0.353611 0 0 0 0 0.481358 0 0 0 0 0.633333 0 0 0 0.41 0"/>
<feBlend mode="normal" in2="BackgroundImageFix" result="effect1_dropShadow"/>
<feBlend mode="normal" in="SourceGraphic" in2="effect1_dropShadow" result="shape"/>
</filter>
</defs>
</svg>
